<svg width="70" height="99" viewBox="0 0 70 99" fill="none" xmlns="http://www.w3.org/2000/svg">
<path fill-rule="evenodd" clip-rule="evenodd" d="M59.7487 10.2513C53.185 3.68749 44.2826 0 35 0C25.7174 0 16.815 3.68749 10.2513 10.2513C3.68749 16.815 0 25.7174 0 35C0 44.2826 3.68749 53.185 10.2513 59.7487C16.815 66.3125 25.7174 70 35 70C44.2826 70 53.185 66.3125 59.7487 59.7487C66.3125 53.185 70 44.2826 70 35C70 25.7174 66.3125 16.815 59.7487 10.2513ZM31.7188 35V16.4062C31.7188 14.5879 33.1816 13.125 35 13.125C36.8184 13.125 38.2812 14.5879 38.2812 16.4062V33.25L49.9434 41.0156C51.4609 42.0273 51.8711 44.0508 50.8594 45.5684C49.8477 47.0859 47.8105 47.4961 46.3066 46.4844L33.1816 37.7344C32.2656 37.1191 31.7188 36.0938 31.7188 35ZM9.03391 90.5337V95.2301H12.2122V90.5337H16.9086V87.3555H12.2122V82.6591H9.03391V87.3555H4.33754V90.5337H9.03391ZM24.8631 97.7781C25.7331 98.0858 26.6357 98.2427 27.5708 98.2486C28.9203 98.2545 30.104 97.9882 31.122 97.4496C32.1459 96.9051 32.9419 96.1534 33.5101 95.1946C34.0842 94.2358 34.3713 93.1409 34.3713 91.9098C34.3713 90.7734 34.1286 89.7643 33.6433 88.8825C33.158 88.0006 32.4951 87.3081 31.6547 86.805C30.8142 86.296 29.8554 86.0415 28.7782 86.0415C28.1154 86.0415 27.485 86.1451 26.8873 86.3523C26.2954 86.5535 25.7657 86.8465 25.2981 87.2312C24.8365 87.61 24.4695 88.0687 24.1973 88.6072H24.073C24.0848 86.8376 24.3955 85.4379 25.0051 84.408C25.6207 83.3782 26.5203 82.8633 27.704 82.8633C28.4024 82.8633 28.9883 83.0438 29.4618 83.4048C29.9353 83.7659 30.246 84.263 30.394 84.8963H34.1848C34.0665 83.8961 33.7232 82.9935 33.155 82.1886C32.5927 81.3836 31.847 80.7474 30.9178 80.2798C29.9886 79.8063 28.9173 79.5696 27.704 79.5696C26.5795 79.5696 25.5645 79.7915 24.6589 80.2354C23.7534 80.6734 22.9751 81.3126 22.324 82.1531C21.6789 82.9935 21.1818 84.0174 20.8326 85.2248C20.4893 86.4263 20.3147 87.7905 20.3088 89.3175C20.3088 90.9806 20.507 92.3833 20.9036 93.5256C21.306 94.6678 21.8506 95.5852 22.5371 96.2777C23.2237 96.9702 23.999 97.4703 24.8631 97.7781ZM29.1422 94.804C28.6747 95.0881 28.1449 95.2301 27.5531 95.2301C26.9612 95.2301 26.4315 95.0851 25.964 94.7951C25.5023 94.5051 25.1354 94.1174 24.8631 93.6321C24.5968 93.1468 24.4636 92.6112 24.4636 92.0252C24.4636 91.5872 24.5435 91.1759 24.7033 90.7912C24.8631 90.4006 25.0821 90.0573 25.3603 89.7614C25.6444 89.4654 25.9728 89.2346 26.3457 89.0689C26.7245 88.9032 27.1358 88.8203 27.5797 88.8203C28.1716 88.8203 28.6983 88.9624 29.16 89.2464C29.6216 89.5305 29.9827 89.9123 30.2431 90.3917C30.5094 90.8711 30.6426 91.4126 30.6426 92.0163C30.6426 92.62 30.5094 93.1645 30.2431 93.6499C29.9767 94.1352 29.6098 94.5199 29.1422 94.804ZM40.2839 97.272C41.3848 98.0178 42.6987 98.3936 44.2257 98.3995C45.7527 98.3995 47.0636 98.0266 48.1586 97.2809C49.2535 96.5352 50.0939 95.455 50.6799 94.0405C51.2717 92.6259 51.5676 90.9214 51.5676 88.9268C51.5736 86.9441 51.2806 85.2573 50.6887 83.8665C50.0969 82.4697 49.2505 81.4044 48.1497 80.6705C47.0547 79.9366 45.7467 79.5696 44.2257 79.5696C42.7046 79.5696 41.3936 79.9366 40.2928 80.6705C39.1979 81.3984 38.3545 82.4608 37.7626 83.8576C37.1767 85.2544 36.8837 86.9441 36.8837 88.9268C36.8778 90.9155 37.1678 92.6171 37.7537 94.0316C38.3456 95.4461 39.189 96.5263 40.2839 97.272ZM46.7203 93.641C46.0989 94.6886 45.2673 95.2124 44.2257 95.2124C43.5332 95.2124 42.9295 94.9815 42.4146 94.5199C41.8997 94.0523 41.5002 93.3539 41.2161 92.4247C40.9379 91.4896 40.7988 90.3236 40.7988 88.9268C40.8047 86.8613 41.1184 85.3106 41.7399 84.2749C42.3613 83.2391 43.1899 82.7212 44.2257 82.7212C44.9181 82.7212 45.5189 82.9521 46.0279 83.4137C46.5428 83.8754 46.9393 84.5649 47.2175 85.4822C47.5016 86.3996 47.6436 87.5478 47.6436 88.9268C47.6496 91.022 47.3418 92.5934 46.7203 93.641ZM62.2277 88.4652L65.6901 88.2521C65.5244 86.9974 64.9443 86.006 63.95 85.2781C62.9616 84.5501 61.6063 84.1861 59.884 84.1861C58.718 84.1861 57.7 84.3577 56.83 84.701C55.9659 85.0443 55.2941 85.5326 54.8147 86.1658C54.3412 86.7991 54.1045 87.5537 54.1045 88.4297C54.1045 89.4477 54.4271 90.2852 55.0722 90.9421C55.7232 91.5991 56.7146 92.0607 58.0463 92.3271L60.4078 92.7976C60.9996 92.916 61.4376 93.0876 61.7217 93.3125C62.0058 93.5315 62.1508 93.8126 62.1567 94.1559C62.1508 94.5643 61.9436 94.8987 61.5352 95.1591C61.1328 95.4136 60.6001 95.5408 59.9372 95.5408C59.2625 95.5408 58.7091 95.3988 58.2771 95.1147C57.845 94.8247 57.5728 94.4045 57.4603 93.854L53.7405 94.0494C53.924 95.3514 54.5484 96.3813 55.6137 97.1388C56.685 97.8905 58.1232 98.2663 59.9284 98.2663C61.1121 98.2663 62.1567 98.0799 63.0622 97.707C63.9737 97.3282 64.6898 96.8015 65.2107 96.1268C65.7374 95.4521 66.0008 94.6678 66.0008 93.7741C66.0008 92.7917 65.6753 91.9986 65.0242 91.3949C64.3732 90.7912 63.3848 90.3532 62.059 90.081L59.591 89.5838C58.9577 89.4477 58.5109 89.2672 58.2504 89.0423C57.99 88.8174 57.8598 88.5421 57.8598 88.2166C57.8598 87.8082 58.0611 87.4827 58.4635 87.2401C58.866 86.9915 59.3602 86.8672 59.9461 86.8672C60.3841 86.8672 60.7599 86.9412 61.0736 87.0891C61.3932 87.2312 61.6507 87.4235 61.846 87.6662C62.0413 87.9029 62.1685 88.1693 62.2277 88.4652Z" fill="#0B0B0B"/>
</svg>
