<svg width="274" height="278" viewBox="0 0 274 278" fill="none" xmlns="http://www.w3.org/2000/svg">
<path fill-rule="evenodd" clip-rule="evenodd" d="M0 10C0 4.47714 4.47716 0 10 0H70C75.5229 0 80 4.47714 80 10V70C80 75.5229 75.5229 80 70 80H10C4.47716 80 0 75.5229 0 70V10ZM95 10C95 4.47714 99.4771 0 105 0H165C170.523 0 175 4.47714 175 10V70C175 75.5229 170.523 80 165 80H105C99.4771 80 95 75.5229 95 70V10ZM10 99C4.47716 99 0 103.477 0 109V169C0 174.523 4.47716 179 10 179H70C75.5229 179 80 174.523 80 169V109C80 103.477 75.5229 99 70 99H10ZM0 208C0 202.477 4.47716 198 10 198H70C75.5229 198 80 202.477 80 208V268C80 273.523 75.5229 278 70 278H10C4.47716 278 0 273.523 0 268V208ZM105 198C99.4771 198 95 202.477 95 208V268C95 273.523 99.4771 278 105 278H165C170.523 278 175 273.523 175 268V208C175 202.477 170.523 198 165 198H105ZM194 208C194 202.477 198.477 198 204 198H264C269.523 198 274 202.477 274 208V268C274 273.523 269.523 278 264 278H204C198.477 278 194 273.523 194 268V208ZM204 0C198.477 0 194 4.47714 194 10V70C194 75.5229 198.477 80 204 80H264C269.523 80 274 75.5229 274 70V10C274 4.47714 269.523 0 264 0H204ZM95 109C95 103.477 99.4771 99 105 99H165C170.523 99 175 103.477 175 109V169C175 174.523 170.523 179 165 179H105C99.4771 179 95 174.523 95 169V109ZM204 99C198.477 99 194 103.477 194 109V169C194 174.523 198.477 179 204 179H264C269.523 179 274 174.523 274 169V109C274 103.477 269.523 99 264 99H204Z" fill="black" fill-opacity="0.4"/>
</svg>
