<svg width="295" height="294" viewBox="0 0 295 294" fill="none" xmlns="http://www.w3.org/2000/svg">
<path fill-rule="evenodd" clip-rule="evenodd" d="M11 0C5.47717 0 1 4.47714 1 10V40C1 45.5229 5.47717 50 11 50H41C46.5228 50 51 45.5229 51 40V10C51 4.47714 46.5228 0 41 0H11ZM133 0C127.477 0 123 4.47714 123 10V40C123 45.5229 127.477 50 133 50H163C168.523 50 173 45.5229 173 40V10C173 4.47714 168.523 0 163 0H133ZM62 10C62 4.47714 66.4772 0 72 0H102C107.523 0 112 4.47714 112 10V40C112 45.5229 107.523 50 102 50H72C66.4772 50 62 45.5229 62 40V10ZM194 0C188.477 0 184 4.47714 184 10V40C184 45.5229 188.477 50 194 50H224C229.523 50 234 45.5229 234 40V10C234 4.47714 229.523 0 224 0H194ZM245 10C245 4.47714 249.477 0 255 0H285C290.523 0 295 4.47714 295 10V40C295 45.5229 290.523 50 285 50H255C249.477 50 245 45.5229 245 40V10ZM1 71C1 65.4771 5.47717 61 11 61H41C46.5228 61 51 65.4771 51 71V101C51 106.523 46.5228 111 41 111H11C5.47717 111 1 106.523 1 101V71ZM133 61C127.477 61 123 65.4771 123 71V101C123 106.523 127.477 111 133 111H163C168.523 111 173 106.523 173 101V71C173 65.4771 168.523 61 163 61H133ZM62 71C62 65.4771 66.4772 61 72 61H102C107.523 61 112 65.4771 112 71V101C112 106.523 107.523 111 102 111H72C66.4772 111 62 106.523 62 101V71ZM194 61C188.477 61 184 65.4771 184 71V101C184 106.523 188.477 111 194 111H224C229.523 111 234 106.523 234 101V71C234 65.4771 229.523 61 224 61H194ZM245 71C245 65.4771 249.477 61 255 61H285C290.523 61 295 65.4771 295 71V101C295 106.523 290.523 111 285 111H255C249.477 111 245 106.523 245 101V71ZM0 132C0 126.477 4.47717 122 10 122H40C45.5228 122 50 126.477 50 132V162C50 167.523 45.5228 172 40 172H10C4.47717 172 0 167.523 0 162V132ZM132 122C126.477 122 122 126.477 122 132V162C122 167.523 126.477 172 132 172H162C167.523 172 172 167.523 172 162V132C172 126.477 167.523 122 162 122H132ZM61 132C61 126.477 65.4772 122 71 122H101C106.523 122 111 126.477 111 132V162C111 167.523 106.523 172 101 172H71C65.4772 172 61 167.523 61 162V132ZM193 122C187.477 122 183 126.477 183 132V162C183 167.523 187.477 172 193 172H223C228.523 172 233 167.523 233 162V132C233 126.477 228.523 122 223 122H193ZM244 132C244 126.477 248.477 122 254 122H284C289.523 122 294 126.477 294 132V162C294 167.523 289.523 172 284 172H254C248.477 172 244 167.523 244 162V132ZM1 193C1 187.477 5.47717 183 11 183H41C46.5228 183 51 187.477 51 193V223C51 228.523 46.5228 233 41 233H11C5.47717 233 1 228.523 1 223V193ZM133 183C127.477 183 123 187.477 123 193V223C123 228.523 127.477 233 133 233H163C168.523 233 173 228.523 173 223V193C173 187.477 168.523 183 163 183H133ZM62 193C62 187.477 66.4772 183 72 183H102C107.523 183 112 187.477 112 193V223C112 228.523 107.523 233 102 233H72C66.4772 233 62 228.523 62 223V193ZM194 183C188.477 183 184 187.477 184 193V223C184 228.523 188.477 233 194 233H224C229.523 233 234 228.523 234 223V193C234 187.477 229.523 183 224 183H194ZM245 193C245 187.477 249.477 183 255 183H285C290.523 183 295 187.477 295 193V223C295 228.523 290.523 233 285 233H255C249.477 233 245 228.523 245 223V193ZM0 254C0 248.477 4.47717 244 10 244H40C45.5228 244 50 248.477 50 254V284C50 289.523 45.5228 294 40 294H10C4.47717 294 0 289.523 0 284V254ZM132 244C126.477 244 122 248.477 122 254V284C122 289.523 126.477 294 132 294H162C167.523 294 172 289.523 172 284V254C172 248.477 167.523 244 162 244H132ZM61 254C61 248.477 65.4772 244 71 244H101C106.523 244 111 248.477 111 254V284C111 289.523 106.523 294 101 294H71C65.4772 294 61 289.523 61 284V254ZM193 244C187.477 244 183 248.477 183 254V284C183 289.523 187.477 294 193 294H223C228.523 294 233 289.523 233 284V254C233 248.477 228.523 244 223 244H193ZM244 254C244 248.477 248.477 244 254 244H284C289.523 244 294 248.477 294 254V284C294 289.523 289.523 294 284 294H254C248.477 294 244 289.523 244 284V254Z" fill="black" fill-opacity="0.4"/>
</svg>
