<svg width="304" height="304" viewBox="0 0 304 304" fill="none" xmlns="http://www.w3.org/2000/svg">
<path fill-rule="evenodd" clip-rule="evenodd" d="M0 10C0 4.47714 4.47717 0 10 0H30C35.5228 0 40 4.47714 40 10V30C40 35.5229 35.5228 40 30 40H10C4.47717 40 0 35.5229 0 30V10ZM264 10C264 4.47714 268.477 0 274 0H294C299.523 0 304 4.47714 304 10V30C304 35.5229 299.523 40 294 40H274C268.477 40 264 35.5229 264 30V10ZM230 0C224.477 0 220 4.47714 220 10V30C220 35.5229 224.477 40 230 40H250C255.523 40 260 35.5229 260 30V10C260 4.47714 255.523 0 250 0H230ZM176 10C176 4.47714 180.477 0 186 0H206C211.523 0 216 4.47714 216 10V30C216 35.5229 211.523 40 206 40H186C180.477 40 176 35.5229 176 30V10ZM142 0C136.477 0 132 4.47714 132 10V30C132 35.5229 136.477 40 142 40H162C167.523 40 172 35.5229 172 30V10C172 4.47714 167.523 0 162 0H142ZM88 10C88 4.47714 92.4772 0 98 0H118C123.523 0 128 4.47714 128 10V30C128 35.5229 123.523 40 118 40H98C92.4772 40 88 35.5229 88 30V10ZM54 0C48.4772 0 44 4.47714 44 10V30C44 35.5229 48.4772 40 54 40H74C79.5228 40 84 35.5229 84 30V10C84 4.47714 79.5228 0 74 0H54ZM0 54C0 48.4771 4.47717 44 10 44H30C35.5228 44 40 48.4771 40 54V74C40 79.5229 35.5228 84 30 84H10C4.47717 84 0 79.5229 0 74V54ZM274 44C268.477 44 264 48.4771 264 54V74C264 79.5229 268.477 84 274 84H294C299.523 84 304 79.5229 304 74V54C304 48.4771 299.523 44 294 44H274ZM220 54C220 48.4771 224.477 44 230 44H250C255.523 44 260 48.4771 260 54V74C260 79.5229 255.523 84 250 84H230C224.477 84 220 79.5229 220 74V54ZM186 44C180.477 44 176 48.4771 176 54V74C176 79.5229 180.477 84 186 84H206C211.523 84 216 79.5229 216 74V54C216 48.4771 211.523 44 206 44H186ZM132 54C132 48.4771 136.477 44 142 44H162C167.523 44 172 48.4771 172 54V74C172 79.5229 167.523 84 162 84H142C136.477 84 132 79.5229 132 74V54ZM98 44C92.4772 44 88 48.4771 88 54V74C88 79.5229 92.4772 84 98 84H118C123.523 84 128 79.5229 128 74V54C128 48.4771 123.523 44 118 44H98ZM44 54C44 48.4771 48.4772 44 54 44H74C79.5228 44 84 48.4771 84 54V74C84 79.5229 79.5228 84 74 84H54C48.4772 84 44 79.5229 44 74V54ZM10 88C4.47717 88 0 92.4771 0 98V118C0 123.523 4.47717 128 10 128H30C35.5228 128 40 123.523 40 118V98C40 92.4771 35.5228 88 30 88H10ZM264 98C264 92.4771 268.477 88 274 88H294C299.523 88 304 92.4771 304 98V118C304 123.523 299.523 128 294 128H274C268.477 128 264 123.523 264 118V98ZM230 88C224.477 88 220 92.4771 220 98V118C220 123.523 224.477 128 230 128H250C255.523 128 260 123.523 260 118V98C260 92.4771 255.523 88 250 88H230ZM176 98C176 92.4771 180.477 88 186 88H206C211.523 88 216 92.4771 216 98V118C216 123.523 211.523 128 206 128H186C180.477 128 176 123.523 176 118V98ZM142 88C136.477 88 132 92.4771 132 98V118C132 123.523 136.477 128 142 128H162C167.523 128 172 123.523 172 118V98C172 92.4771 167.523 88 162 88H142ZM88 98C88 92.4771 92.4772 88 98 88H118C123.523 88 128 92.4771 128 98V118C128 123.523 123.523 128 118 128H98C92.4772 128 88 123.523 88 118V98ZM54 88C48.4772 88 44 92.4771 44 98V118C44 123.523 48.4772 128 54 128H74C79.5228 128 84 123.523 84 118V98C84 92.4771 79.5228 88 74 88H54ZM0 142C0 136.477 4.47717 132 10 132H30C35.5228 132 40 136.477 40 142V162C40 167.523 35.5228 172 30 172H10C4.47717 172 0 167.523 0 162V142ZM274 132C268.477 132 264 136.477 264 142V162C264 167.523 268.477 172 274 172H294C299.523 172 304 167.523 304 162V142C304 136.477 299.523 132 294 132H274ZM220 142C220 136.477 224.477 132 230 132H250C255.523 132 260 136.477 260 142V162C260 167.523 255.523 172 250 172H230C224.477 172 220 167.523 220 162V142ZM186 132C180.477 132 176 136.477 176 142V162C176 167.523 180.477 172 186 172H206C211.523 172 216 167.523 216 162V142C216 136.477 211.523 132 206 132H186ZM132 142C132 136.477 136.477 132 142 132H162C167.523 132 172 136.477 172 142V162C172 167.523 167.523 172 162 172H142C136.477 172 132 167.523 132 162V142ZM98 132C92.4772 132 88 136.477 88 142V162C88 167.523 92.4772 172 98 172H118C123.523 172 128 167.523 128 162V142C128 136.477 123.523 132 118 132H98ZM44 142C44 136.477 48.4772 132 54 132H74C79.5228 132 84 136.477 84 142V162C84 167.523 79.5228 172 74 172H54C48.4772 172 44 167.523 44 162V142ZM10 176C4.47717 176 0 180.477 0 186V206C0 211.523 4.47717 216 10 216H30C35.5228 216 40 211.523 40 206V186C40 180.477 35.5228 176 30 176H10ZM264 186C264 180.477 268.477 176 274 176H294C299.523 176 304 180.477 304 186V206C304 211.523 299.523 216 294 216H274C268.477 216 264 211.523 264 206V186ZM230 176C224.477 176 220 180.477 220 186V206C220 211.523 224.477 216 230 216H250C255.523 216 260 211.523 260 206V186C260 180.477 255.523 176 250 176H230ZM176 186C176 180.477 180.477 176 186 176H206C211.523 176 216 180.477 216 186V206C216 211.523 211.523 216 206 216H186C180.477 216 176 211.523 176 206V186ZM142 176C136.477 176 132 180.477 132 186V206C132 211.523 136.477 216 142 216H162C167.523 216 172 211.523 172 206V186C172 180.477 167.523 176 162 176H142ZM88 186C88 180.477 92.4772 176 98 176H118C123.523 176 128 180.477 128 186V206C128 211.523 123.523 216 118 216H98C92.4772 216 88 211.523 88 206V186ZM54 176C48.4772 176 44 180.477 44 186V206C44 211.523 48.4772 216 54 216H74C79.5228 216 84 211.523 84 206V186C84 180.477 79.5228 176 74 176H54ZM0 230C0 224.477 4.47717 220 10 220H30C35.5228 220 40 224.477 40 230V250C40 255.523 35.5228 260 30 260H10C4.47717 260 0 255.523 0 250V230ZM274 220C268.477 220 264 224.477 264 230V250C264 255.523 268.477 260 274 260H294C299.523 260 304 255.523 304 250V230C304 224.477 299.523 220 294 220H274ZM220 230C220 224.477 224.477 220 230 220H250C255.523 220 260 224.477 260 230V250C260 255.523 255.523 260 250 260H230C224.477 260 220 255.523 220 250V230ZM186 220C180.477 220 176 224.477 176 230V250C176 255.523 180.477 260 186 260H206C211.523 260 216 255.523 216 250V230C216 224.477 211.523 220 206 220H186ZM132 230C132 224.477 136.477 220 142 220H162C167.523 220 172 224.477 172 230V250C172 255.523 167.523 260 162 260H142C136.477 260 132 255.523 132 250V230ZM98 220C92.4772 220 88 224.477 88 230V250C88 255.523 92.4772 260 98 260H118C123.523 260 128 255.523 128 250V230C128 224.477 123.523 220 118 220H98ZM44 230C44 224.477 48.4772 220 54 220H74C79.5228 220 84 224.477 84 230V250C84 255.523 79.5228 260 74 260H54C48.4772 260 44 255.523 44 250V230ZM10 264C4.47717 264 0 268.477 0 274V294C0 299.523 4.47717 304 10 304H30C35.5228 304 40 299.523 40 294V274C40 268.477 35.5228 264 30 264H10ZM264 274C264 268.477 268.477 264 274 264H294C299.523 264 304 268.477 304 274V294C304 299.523 299.523 304 294 304H274C268.477 304 264 299.523 264 294V274ZM230 264C224.477 264 220 268.477 220 274V294C220 299.523 224.477 304 230 304H250C255.523 304 260 299.523 260 294V274C260 268.477 255.523 264 250 264H230ZM176 274C176 268.477 180.477 264 186 264H206C211.523 264 216 268.477 216 274V294C216 299.523 211.523 304 206 304H186C180.477 304 176 299.523 176 294V274ZM142 264C136.477 264 132 268.477 132 274V294C132 299.523 136.477 304 142 304H162C167.523 304 172 299.523 172 294V274C172 268.477 167.523 264 162 264H142ZM88 274C88 268.477 92.4772 264 98 264H118C123.523 264 128 268.477 128 274V294C128 299.523 123.523 304 118 304H98C92.4772 304 88 299.523 88 294V274ZM54 264C48.4772 264 44 268.477 44 274V294C44 299.523 48.4772 304 54 304H74C79.5228 304 84 299.523 84 294V274C84 268.477 79.5228 264 74 264H54Z" fill="#0B0B0B" fill-opacity="0.4"/>
</svg>
