<svg width="566" height="800" viewBox="0 0 566 800" fill="none" xmlns="http://www.w3.org/2000/svg">
<path d="M295.94 647.99H257.301C230.089 647.99 207.974 670.105 207.974 697.317V750.672C207.974 777.884 230.089 799.999 257.301 799.999H295.94C323.153 799.999 345.267 777.884 345.267 750.672V697.317C345.267 670.024 323.153 647.99 295.94 647.99Z" fill="#DF7575"/>
<path d="M23.4913 234.96L94.7687 243.839C117.377 246.634 138.834 233.645 146.973 212.352C157.249 185.469 171.554 164.259 189.887 148.803C215.867 126.935 248.175 115.918 286.815 115.918C326.852 115.918 358.75 126.441 382.427 147.405C406.104 168.451 417.86 193.608 417.86 223.122C417.86 244.333 411.201 263.734 397.882 281.328C389.25 292.508 362.696 316.021 318.384 351.947C273.99 387.874 244.477 420.264 229.679 449.038C214.552 478.471 209.29 511.108 207.975 543.829C206.825 571.863 229.185 595.211 257.302 595.211H297.585C323.235 595.211 344.446 575.563 346.748 550.077C348.392 531.745 351.434 517.851 356.038 508.397C363.766 492.2 383.743 470.825 415.805 444.19C477.874 392.807 518.322 352.194 537.314 322.269C556.223 292.426 565.759 260.775 565.759 227.315C565.759 166.889 540.027 113.863 488.48 68.3177C437.016 22.7726 367.629 0 280.485 0C197.616 0 130.778 22.4437 79.807 67.4134C36.3994 105.724 10.0095 151.105 0.719572 203.473C-2.15865 218.765 8.28221 233.07 23.4913 234.96Z" fill="#DF7575"/>
</svg>
